<svg width="32" height="32" viewBox="0 0 32 32" fill="none" xmlns="http://www.w3.org/2000/svg">
<path fill-rule="evenodd" clip-rule="evenodd" d="M0.87868 0.87868C0 1.75736 0 3.17157 0 6V26C0 28.8284 0 30.2426 0.87868 31.1213C1.75736 32 3.17157 32 6 32H26C28.8284 32 30.2426 32 31.1213 31.1213C32 30.2426 32 28.8284 32 26V6C32 3.17157 32 1.75736 31.1213 0.87868C30.2426 0 28.8284 0 26 0H6C3.17157 0 1.75736 0 0.87868 0.87868ZM22.4 9.66655C22.9523 9.66655 23.4 10.1143 23.4 10.6666V24.8888C23.4 25.4411 22.9523 25.8888 22.4 25.8888C21.8477 25.8888 21.4 25.4411 21.4 24.8888V10.6666C21.4 10.1143 21.8477 9.66655 22.4 9.66655ZM10.6 14.222C10.6 13.6697 10.1523 13.222 9.6 13.222C9.04772 13.222 8.6 13.6697 8.6 14.222V24.8887C8.6 25.441 9.04772 25.8887 9.6 25.8887C10.1523 25.8887 10.6 25.441 10.6 24.8887V14.222ZM17 17.7777C17 17.2254 16.5523 16.7777 16 16.7777C15.4477 16.7777 15 17.2254 15 17.7777V24.8888C15 25.4411 15.4477 25.8888 16 25.8888C16.5523 25.8888 17 25.4411 17 24.8888V17.7777Z" fill="#475569"/>
</svg>
