<svg width="32" height="32" viewBox="0 0 32 32" fill="none" xmlns="http://www.w3.org/2000/svg">
<path fill-rule="evenodd" clip-rule="evenodd" d="M19.3801 1.80097V1.80099L19.4956 2.95549C19.6589 4.58903 19.7406 5.4058 20.2934 5.63478C20.8462 5.86376 21.4815 5.34397 22.7521 4.3044L23.6501 3.5697C24.3158 3.02499 24.6487 2.75264 25.0335 2.77183C25.4184 2.79102 25.7225 3.09515 26.3307 3.7034L28.2965 5.66919C28.9048 6.27745 29.2089 6.58158 29.2281 6.96641C29.2473 7.35125 28.975 7.68413 28.4302 8.34989L27.6955 9.24789C26.6559 10.5185 26.1361 11.1538 26.3651 11.7066C26.5941 12.2594 27.4109 12.3411 29.0444 12.5044L30.199 12.6199C31.0549 12.7055 31.4829 12.7483 31.7415 13.034C32 13.3197 32 13.7498 32 14.61V17.39C32 18.2502 32 18.6803 31.7415 18.966C31.4829 19.2517 31.0549 19.2945 30.199 19.3801H30.199L29.045 19.4955C27.4115 19.6589 26.5947 19.7405 26.3657 20.2933C26.1367 20.8462 26.6565 21.4815 27.6961 22.752L28.4303 23.6494C28.975 24.3152 29.2474 24.648 29.2282 25.0329C29.209 25.4177 28.9049 25.7218 28.2966 26.3301L26.3308 28.2959C25.7226 28.9041 25.4184 29.2083 25.0336 29.2275C24.6488 29.2467 24.3159 28.9743 23.6501 28.4296L22.7522 27.6949C21.4816 26.6553 20.8463 26.1355 20.2935 26.3645C19.7407 26.5935 19.659 27.4103 19.4956 29.0438L19.3801 30.199V30.199C19.2945 31.0549 19.2517 31.4829 18.966 31.7415C18.6803 32 18.2502 32 17.39 32H14.61C13.7498 32 13.3197 32 13.034 31.7415C12.7483 31.4829 12.7055 31.0549 12.6199 30.199L12.5044 29.0444C12.3411 27.4109 12.2594 26.5941 11.7066 26.3651C11.1538 26.1362 10.5185 26.6559 9.24789 27.6955L8.34981 28.4303C7.68405 28.975 7.35117 29.2474 6.96634 29.2282C6.58151 29.209 6.27738 28.9049 5.66913 28.2966L5.66912 28.2966L3.70333 26.3308C3.09508 25.7226 2.79095 25.4184 2.77176 25.0336C2.75256 24.6488 3.02492 24.3159 3.56963 23.6501L4.30439 22.7521C5.34396 21.4815 5.86375 20.8462 5.63477 20.2934C5.40578 19.7406 4.58902 19.6589 2.95548 19.4955L1.80099 19.3801H1.80097C0.945055 19.2945 0.517093 19.2517 0.258547 18.966C0 18.6803 0 18.2502 0 17.39V14.61C0 13.7498 0 13.3197 0.258547 13.034C0.517095 12.7483 0.945061 12.7055 1.80099 12.6199L2.95608 12.5044C4.58962 12.341 5.40639 12.2594 5.63537 11.7065C5.86435 11.1537 5.34456 10.5184 4.30499 9.24784L3.5697 8.34916C3.02499 7.6834 2.75264 7.35052 2.77183 6.96569C2.79102 6.58085 3.09515 6.27672 3.7034 5.66847L5.66919 3.70268C6.27745 3.09443 6.58158 2.7903 6.96641 2.7711C7.35125 2.75191 7.68413 3.02427 8.34988 3.56898L9.24796 4.30377C10.5186 5.34335 11.1539 5.86313 11.7067 5.63415C12.2595 5.40517 12.3412 4.5884 12.5045 2.95486L12.6199 1.80099C12.7055 0.945061 12.7483 0.517095 13.034 0.258547C13.3197 0 13.7498 0 14.61 0H17.39C18.2502 0 18.6803 0 18.966 0.258548C19.2517 0.517093 19.2945 0.945055 19.3801 1.80097ZM16 22.4C19.5346 22.4 22.4 19.5346 22.4 16C22.4 12.4654 19.5346 9.6 16 9.6C12.4654 9.6 9.6 12.4654 9.6 16C9.6 19.5346 12.4654 22.4 16 22.4Z" fill="#475569"/>
</svg>
