<svg width="80" height="40" viewBox="0 0 80 40" fill="none" xmlns="http://www.w3.org/2000/svg">
<path d="M23.2384 21.3684L18.9932 15.2422V21.3684H14.6002V7.26984H18.9932V13.2314L23.3547 7.30897H28.5574L23.2099 13.96L28.6403 21.3684H23.2384Z" fill="#CFFAFE" fill-opacity="0.5"/>
<path d="M77.4259 39.9113C78.8476 39.9113 80 38.7611 80 37.3415C80 35.9229 78.8476 34.772 77.4259 34.772C76.0042 34.772 74.8518 35.9227 74.8518 37.3415C74.8518 38.7611 76.0042 39.9113 77.4259 39.9113Z" fill="#01FE83" fill-opacity="0.5"/>
<path d="M32.6087 5.13934C34.0301 5.13934 35.1828 3.98865 35.1828 2.56954C35.1828 1.15042 34.0304 0 32.6087 0C31.187 0 30.0346 1.15042 30.0346 2.56954C30.0346 3.98865 31.1873 5.13934 32.6087 5.13934Z" fill="#01FE83" fill-opacity="0.5"/>
<path d="M34.807 7.26956H30.4142V21.3678H34.807V7.26956Z" fill="#CFFAFE" fill-opacity="0.5"/>
<path d="M30.329 32.5893C30.329 28.388 32.9005 25.1812 36.9464 25.1812C38.9697 25.1812 40.5581 26.1446 41.311 27.5731V25.5594H45.704V39.6191H41.311V37.6347C40.5581 39.034 38.825 39.9979 36.8898 39.9979C32.7297 40.0002 30.329 36.819 30.329 32.5893ZM41.4844 32.5893C41.4844 30.5759 40.3563 28.9124 38.16 28.9124C36.1085 28.9124 34.836 30.4585 34.836 32.5893C34.836 34.7172 36.1062 36.2946 38.16 36.2946C40.3586 36.2946 41.4844 34.6311 41.4844 32.5893Z" fill="#CFFAFE" fill-opacity="0.5"/>
<path d="M48.2927 25.5592H52.7134V28.5049C53.205 26.4054 54.853 25.3265 56.5577 25.3265C57.078 25.3265 57.368 25.3552 57.7145 25.4439L57.6913 29.583C57.171 29.523 56.933 29.497 56.3846 29.497C53.9865 29.497 52.7134 31.0713 52.7134 34.1918V39.6183H48.2922L48.2927 25.5592Z" fill="#CFFAFE" fill-opacity="0.5"/>
<path d="M58.6093 32.5893C58.6093 27.9803 61.5868 25.1812 66.1219 25.1812C70.4578 25.1812 73.4045 27.8942 73.4045 31.8607C73.4045 32.5893 73.3761 33.0281 73.288 33.8138H62.9994C63.085 35.6524 64.3009 36.6447 66.2648 36.6447C67.6227 36.6447 68.4892 36.2659 68.8648 35.391H73.2006C72.7685 38.1617 69.9644 40 66.2648 40C61.5281 40 58.61 37.287 58.61 32.5893H58.6093ZM69.0431 31.0431C69.0147 29.1761 67.9744 28.1838 66.0966 28.1838C64.1898 28.1838 63.0335 29.3224 63.0051 31.0431H69.0431Z" fill="#CFFAFE" fill-opacity="0.5"/>
<path d="M41.7798 17.1825V7.26981H37.3583V21.3684H48.0868V17.1825H41.7798Z" fill="#CFFAFE" fill-opacity="0.5"/>
<path d="M54.9053 17.1825V7.26981H50.4841V21.3684H61.2128V17.1825H54.9053Z" fill="#CFFAFE" fill-opacity="0.5"/>
<path d="M24.2331 25.5542V30.6174H18.9347V25.5542H14.6014V39.6551H18.9347V34.66H24.2331V39.6551H28.5689V25.5542H24.2331Z" fill="#CFFAFE" fill-opacity="0.5"/>
<path d="M9.14807 31.2706L6.44709 30.5154C5.53376 30.2415 5.2182 29.8364 5.2182 29.2648C5.2182 28.6405 5.70459 28.2725 6.33338 28.1992C7.24646 28.0922 7.95278 28.4919 7.95278 29.4868V29.552H12.5991V29.4868H12.5965C12.5965 26.6796 10.2449 25.1311 6.31787 25.1311C2.73767 25.1311 0.370343 26.8862 0.370343 29.5471C0.370343 31.6804 1.64059 33.1139 3.86267 33.6677L6.64894 34.3728C7.47673 34.6366 7.81038 35.0464 7.8078 35.6889C7.80521 36.3912 7.10664 36.7879 6.39256 36.8221C5.35776 36.8693 4.60492 36.3027 4.5478 35.4019H0C0.067195 38.0915 2.67487 39.9822 6.5789 39.9822C10.2731 39.9822 12.6712 38.2587 12.6712 35.3339C12.6686 33.2002 11.3415 31.8557 9.14807 31.2706Z" fill="#CFFAFE" fill-opacity="0.5"/>
<path d="M9.14807 13.0199L6.44709 12.2652C5.53376 11.991 5.2182 11.5861 5.2182 11.0143C5.2182 10.3901 5.70459 10.022 6.33338 9.94893C7.24646 9.84171 7.95278 10.2414 7.95278 11.2363V11.3015H12.5991V11.2363H12.5965C12.5965 8.42912 10.2449 6.88062 6.31787 6.88062C2.73767 6.88062 0.370343 8.63547 0.370343 11.2963C0.370343 13.4299 1.64059 14.8634 3.86267 15.417L6.64894 16.1221C7.47673 16.3858 7.81038 16.7959 7.8078 17.4382C7.80521 18.1404 7.10664 18.5374 6.39256 18.5714C5.35776 18.6183 4.60492 18.0517 4.5478 17.1509H0C0.067195 19.8407 2.67487 21.731 6.5789 21.731C10.2731 21.731 12.6712 20.0077 12.6712 17.0829C12.6691 14.9495 11.3417 13.605 9.14807 13.0199Z" fill="#CFFAFE" fill-opacity="0.5"/>
</svg>
