<svg width="31" height="34" viewBox="0 0 31 34" fill="none" xmlns="http://www.w3.org/2000/svg">
<path fill-rule="evenodd" clip-rule="evenodd" d="M5.44444 24.1111H22.3333C25.6855 24.1111 27.3617 24.1111 28.403 23.0697C29.4444 22.0283 29.4444 20.3522 29.4444 17V8.11111C29.4444 4.7589 29.4444 3.0828 28.403 2.0414C27.3617 1 25.6855 1 22.3333 1H8.11111C4.7589 1 3.0828 1 2.0414 2.0414C1 3.0828 1 4.7589 1 8.11111V28.5556C1 26.101 2.98985 24.1111 5.44444 24.1111ZM21.9698 11.3031C22.7508 10.522 22.7508 9.2557 21.9698 8.47465C21.1887 7.69361 19.9224 7.69361 19.1413 8.47465L13.4444 14.1716L11.3031 12.0302C10.5221 11.2492 9.25573 11.2492 8.47468 12.0302C7.69363 12.8113 7.69363 14.0776 8.47468 14.8586L11.3231 17.7071C12.4947 18.8787 14.3942 18.8787 15.5658 17.7071L21.9698 11.3031Z" fill="#475569"/>
<path d="M28.403 23.0697L27.6959 22.3626L27.6959 22.3626L28.403 23.0697ZM28.403 2.0414L27.6959 2.7485L27.6959 2.74851L28.403 2.0414ZM21.9698 8.47465L21.2627 9.18176L21.2627 9.18176L21.9698 8.47465ZM21.9698 11.3031L21.2627 10.596L21.9698 11.3031ZM19.1413 8.47465L19.8485 9.18176V9.18176L19.1413 8.47465ZM13.4444 14.1716L12.7373 14.8787L13.4444 15.5858L14.1516 14.8787L13.4444 14.1716ZM11.3031 12.0302L10.596 12.7373H10.596L11.3031 12.0302ZM8.47468 12.0302L9.18178 12.7373L8.47468 12.0302ZM8.47468 14.8586L7.76757 15.5657L8.47468 14.8586ZM11.3231 17.7071L10.616 18.4142L11.3231 17.7071ZM15.5658 17.7071L16.2729 18.4142L15.5658 17.7071ZM22.3333 23.1111H5.44444V25.1111H22.3333V23.1111ZM27.6959 22.3626C27.392 22.6665 26.9588 22.8746 26.1015 22.9899C25.2154 23.109 24.0377 23.1111 22.3333 23.1111V25.1111C23.9812 25.1111 25.3176 25.1132 26.368 24.972C27.4471 24.8269 28.3727 24.5143 29.1102 23.7768L27.6959 22.3626ZM28.4444 17C28.4444 18.7044 28.4423 19.8821 28.3232 20.7682C28.2079 21.6255 27.9999 22.0587 27.6959 22.3626L29.1102 23.7768C29.8476 23.0394 30.1603 22.1138 30.3054 21.0347C30.4466 19.9843 30.4444 18.6478 30.4444 17H28.4444ZM28.4444 8.11111V17H30.4444V8.11111H28.4444ZM27.6959 2.74851C27.9999 3.05244 28.2079 3.48561 28.3232 4.34295C28.4423 5.22905 28.4444 6.40674 28.4444 8.11111H30.4444C30.4444 6.46328 30.4466 5.1268 30.3054 4.07645C30.1603 2.99734 29.8476 2.07176 29.1102 1.33429L27.6959 2.74851ZM22.3333 2C24.0377 2 25.2154 2.00212 26.1015 2.12126C26.9588 2.23652 27.392 2.44457 27.6959 2.7485L29.1102 1.33429C28.3727 0.596823 27.4471 0.284175 26.368 0.139092C25.3176 -0.00212371 23.9812 0 22.3333 0V2ZM8.11111 2H22.3333V0H8.11111V2ZM2.7485 2.7485C3.05244 2.44457 3.48561 2.23652 4.34295 2.12126C5.22905 2.00212 6.40674 2 8.11111 2V0C6.46328 0 5.1268 -0.00212371 4.07645 0.139092C2.99734 0.284175 2.07176 0.596823 1.33429 1.33429L2.7485 2.7485ZM2 8.11111C2 6.40674 2.00212 5.22905 2.12126 4.34295C2.23652 3.48561 2.44457 3.05244 2.7485 2.7485L1.33429 1.33429C0.596823 2.07176 0.284175 2.99734 0.139092 4.07645C-0.00212371 5.1268 0 6.46328 0 8.11111H2ZM2 28.5556V8.11111H0V28.5556H2ZM5.44444 23.1111C2.43756 23.1111 0 25.5487 0 28.5556H2C2 26.6532 3.54213 25.1111 5.44444 25.1111V23.1111ZM21.2627 9.18176C21.6532 9.57228 21.6532 10.2055 21.2627 10.596L22.6769 12.0102C23.8484 10.8386 23.8485 8.93912 22.6769 7.76755L21.2627 9.18176ZM19.8485 9.18176C20.239 8.79124 20.8721 8.79124 21.2627 9.18176L22.6769 7.76755C21.5053 6.59598 19.6058 6.59597 18.4342 7.76755L19.8485 9.18176ZM14.1516 14.8787L19.8485 9.18176L18.4342 7.76755L12.7373 13.4644L14.1516 14.8787ZM10.596 12.7373L12.7373 14.8787L14.1516 13.4644L12.0102 11.3231L10.596 12.7373ZM9.18178 12.7373C9.57231 12.3468 10.2055 12.3468 10.596 12.7373L12.0102 11.3231C10.8386 10.1515 8.93914 10.1515 7.76757 11.3231L9.18178 12.7373ZM9.18178 14.1515C8.79126 13.761 8.79126 13.1278 9.18178 12.7373L7.76757 11.3231C6.596 12.4947 6.596 14.3942 7.76757 15.5657L9.18178 14.1515ZM12.0302 17L9.18178 14.1515L7.76757 15.5657L10.616 18.4142L12.0302 17ZM14.8587 17C14.0776 17.781 12.8113 17.781 12.0302 17L10.616 18.4142C12.1781 19.9763 14.7108 19.9763 16.2729 18.4142L14.8587 17ZM21.2627 10.596L14.8587 17L16.2729 18.4142L22.6769 12.0102L21.2627 10.596ZM13.4444 32H5.44444V34H13.4444V32ZM0 28.5556C0 31.5624 2.43756 34 5.44444 34V32C3.54213 32 2 30.4579 2 28.5556H0Z" fill="#475569"/>
<path d="M29.4444 33H11.6667" stroke="#475569" stroke-width="2" stroke-linecap="round"/>
</svg>
