<svg width="106" height="40" viewBox="0 0 106 40" fill="none" xmlns="http://www.w3.org/2000/svg">
<g opacity="0.5">
<path d="M16.4666 9.55474L8.24375 4.77737L0 9.55474V4.77737L8.24375 0L16.4666 4.77737V9.55474Z" fill="#A334EF"/>
<path d="M0 13.5569H4.32014V24.0755C4.32014 26.7994 6.34456 28.1195 8.24375 28.1195C10.1638 28.1195 12.1674 26.7575 12.1674 24.0335V13.5569H16.4875V24.3269C16.4875 26.8413 15.6944 28.769 14.1292 30.0891C12.5639 31.4091 10.6021 32.0587 8.20201 32.0587C5.8228 32.0587 3.861 31.4091 2.3166 30.0891C0.793069 28.769 0 26.9042 0 24.4317V13.5569ZM53.7618 26.6318C52.4469 27.8052 50.9651 28.3709 49.2747 28.3709C46.1859 28.3709 44.0988 26.6108 43.8693 23.8659H57.8106C57.8106 23.8659 57.8941 22.9859 57.8941 22.1477C57.8941 19.5705 57.0801 17.4123 55.3896 15.6731C53.7409 13.9131 51.6121 13.054 49.0033 13.054C46.2693 13.054 44.0154 13.9131 42.2205 15.6731C40.4674 17.4332 39.5909 19.7172 39.5909 22.5878V22.7344C39.5909 25.5631 40.4883 27.8261 42.2205 29.5024C43.9736 31.1786 46.2902 32.0377 49.1077 32.0377C52.3843 32.0377 54.9931 30.7386 56.9549 28.4966L53.7409 26.6318H53.7618ZM45.5598 17.8523C46.5198 17.098 47.7094 16.6999 49.0242 16.6999C50.2764 16.6999 51.2991 17.098 52.1965 17.8733C53.0522 18.5857 53.5113 19.4657 53.5531 20.4924H43.9945C44.1406 19.4448 44.6623 18.5647 45.5806 17.8523H45.5598ZM97.1928 34.4474C95.4397 38.5961 93.6031 40 90.8065 40H88.8655V36.1656H90.4308C91.3908 36.1656 92.2882 35.8093 93.1439 33.8188L93.9996 31.8282L86.6115 13.5359H90.9943L96.2327 26.7156L101.617 13.5359H106L97.1719 34.4264L97.1928 34.4474ZM33.2672 6.64224V15.1912C31.848 13.9131 29.6566 13.1587 27.5279 13.1587C25.0026 13.1587 22.8529 14.0597 21.1207 15.8827C19.4093 17.6637 18.5537 19.8848 18.5537 22.5668C18.5537 25.2488 19.4093 27.4699 21.1207 29.2928C22.8738 31.0739 25.0026 31.9749 27.5279 31.9749C30.4497 31.9749 32.2863 30.8224 33.2672 29.9214V31.5768H37.5456V6.64224H33.2672ZM31.9732 26.506C30.9297 27.5537 29.6149 28.0775 28.0914 28.0775C26.5678 28.0775 25.3156 27.5328 24.2721 26.506C23.2703 25.4584 22.7694 24.1383 22.7694 22.5668C22.7694 20.9953 23.2703 19.6752 24.2721 18.6276C25.3156 17.5799 26.547 17.0561 28.0914 17.0561C29.6149 17.0561 30.9506 17.6009 31.9732 18.6276C33.0376 19.6752 33.5802 20.9953 33.5802 22.5668C33.5802 24.1383 33.0376 25.4584 31.9732 26.506ZM79.9748 13.2007C76.719 13.2007 75.0285 14.5626 73.8807 15.8617C73.4215 14.9817 72.1067 13.2007 69.0597 13.2007C66.4926 13.2007 64.9691 14.4998 64.2178 15.4427V13.5569H59.9811V31.5977H64.2178V21.2258C64.2178 18.7952 65.7204 17.0351 67.7031 17.0351C69.7275 17.0351 70.9171 18.5647 70.9171 21.0372V31.5977H75.1538V21.2258C75.1538 18.7533 76.6147 17.0351 78.7226 17.0351C80.747 17.0351 81.9366 18.5647 81.9366 21.0372V31.5977H86.215V20.4296C86.215 15.736 83.6897 13.2007 79.9748 13.2007Z" fill="#CFFAFE"/>
</g>
</svg>
